<?xml version="1.0" encoding="UTF-8"?>
<svg xmlns="http://www.w3.org/2000/svg" xmlns:xlink="http://www.w3.org/1999/xlink" width="4000" height="4030" viewBox="0 0 4000 4030">
<defs>
<clipPath id="clip-0">
<path clip-rule="nonzero" d="M 0 0 L 4000 0 L 4000 4000 L 0 4000 Z M 0 0 "/>
</clipPath>
<clipPath id="clip-1">
<path clip-rule="nonzero" d="M 800 0 L 3200 0 C 3641.828125 0 4000 358.171875 4000 800 L 4000 3200 C 4000 3641.828125 3641.828125 4000 3200 4000 L 800 4000 C 358.171875 4000 0 3641.828125 0 3200 L 0 800 C 0 358.171875 358.171875 0 800 0 Z M 800 0 "/>
</clipPath>
<clipPath id="clip-2">
<path clip-rule="nonzero" d="M 800 0 L 3200 0 C 3641.828125 0 4000 358.171875 4000 800 L 4000 3200 C 4000 3641.828125 3641.828125 4000 3200 4000 L 800 4000 C 358.171875 4000 0 3641.828125 0 3200 L 0 800 C 0 358.171875 358.171875 0 800 0 "/>
</clipPath>
<linearGradient id="linear-pattern-0" gradientUnits="userSpaceOnUse" x1="-0.0663516" y1="0" x2="1.066353" y2="0" gradientTransform="matrix(3531.37, -3531.37, -3531.37, -3531.37, 234.314, 3765.69)">
<stop offset="0" stop-color="rgb(47.116089%, 48.744202%, 77.693176%)" stop-opacity="1"/>
<stop offset="0.0625" stop-color="rgb(47.050476%, 48.680115%, 77.658081%)" stop-opacity="1"/>
<stop offset="0.0703125" stop-color="rgb(46.850586%, 48.486328%, 77.52533%)" stop-opacity="1"/>
<stop offset="0.078125" stop-color="rgb(46.574402%, 48.228455%, 77.270508%)" stop-opacity="1"/>
<stop offset="0.0820312" stop-color="rgb(46.154785%, 47.9599%, 77.041626%)" stop-opacity="1"/>
<stop offset="0.0859375" stop-color="rgb(45.878601%, 47.819519%, 76.96991%)" stop-opacity="1"/>
<stop offset="0.0898438" stop-color="rgb(45.744324%, 47.590637%, 76.757812%)" stop-opacity="1"/>
<stop offset="0.09375" stop-color="rgb(45.611572%, 47.361755%, 76.545715%)" stop-opacity="1"/>
<stop offset="0.0976562" stop-color="rgb(45.484924%, 47.201538%, 76.361084%)" stop-opacity="1"/>
<stop offset="0.101562" stop-color="rgb(45.359802%, 47.041321%, 76.179504%)" stop-opacity="1"/>
<stop offset="0.109375" stop-color="rgb(45.230103%, 46.917725%, 76.063538%)" stop-opacity="1"/>
<stop offset="0.113281" stop-color="rgb(44.932556%, 46.632385%, 75.83313%)" stop-opacity="1"/>
<stop offset="0.117188" stop-color="rgb(44.764709%, 46.470642%, 75.718689%)" stop-opacity="1"/>
<stop offset="0.121094" stop-color="rgb(44.517517%, 46.235657%, 75.505066%)" stop-opacity="1"/>
<stop offset="0.125" stop-color="rgb(44.271851%, 46.000671%, 75.291443%)" stop-opacity="1"/>
<stop offset="0.132812" stop-color="rgb(44.142151%, 45.877075%, 75.224304%)" stop-opacity="1"/>
<stop offset="0.140625" stop-color="rgb(43.884277%, 45.631409%, 75.091553%)" stop-opacity="1"/>
<stop offset="0.144531" stop-color="rgb(43.530273%, 45.381165%, 74.893188%)" stop-opacity="1"/>
<stop offset="0.148438" stop-color="rgb(43.305969%, 45.254517%, 74.761963%)" stop-opacity="1"/>
<stop offset="0.152344" stop-color="rgb(43.110657%, 45.074463%, 74.617004%)" stop-opacity="1"/>
<stop offset="0.15625" stop-color="rgb(42.91687%, 44.895935%, 74.47052%)" stop-opacity="1"/>
<stop offset="0.160156" stop-color="rgb(42.799377%, 44.696045%, 74.333191%)" stop-opacity="1"/>
<stop offset="0.164062" stop-color="rgb(42.681885%, 44.496155%, 74.195862%)" stop-opacity="1"/>
<stop offset="0.171875" stop-color="rgb(42.555237%, 44.378662%, 74.046326%)" stop-opacity="1"/>
<stop offset="0.179688" stop-color="rgb(42.301941%, 44.140625%, 73.831177%)" stop-opacity="1"/>
<stop offset="0.183594" stop-color="rgb(41.93573%, 43.798828%, 73.641968%)" stop-opacity="1"/>
<stop offset="0.1875" stop-color="rgb(41.697693%, 43.577576%, 73.519897%)" stop-opacity="1"/>
<stop offset="0.191406" stop-color="rgb(41.540527%, 43.348694%, 73.330688%)" stop-opacity="1"/>
<stop offset="0.195312" stop-color="rgb(41.383362%, 43.119812%, 73.141479%)" stop-opacity="1"/>
<stop offset="0.199219" stop-color="rgb(41.265869%, 42.947388%, 72.996521%)" stop-opacity="1"/>
<stop offset="0.203125" stop-color="rgb(41.148376%, 42.774963%, 72.851562%)" stop-opacity="1"/>
<stop offset="0.207031" stop-color="rgb(41.026306%, 42.630005%, 72.746277%)" stop-opacity="1"/>
<stop offset="0.210938" stop-color="rgb(40.905762%, 42.485046%, 72.639465%)" stop-opacity="1"/>
<stop offset="0.214844" stop-color="rgb(40.786743%, 42.269897%, 72.434998%)" stop-opacity="1"/>
<stop offset="0.21875" stop-color="rgb(40.666199%, 42.054749%, 72.23053%)" stop-opacity="1"/>
<stop offset="0.222656" stop-color="rgb(40.402222%, 41.934204%, 72.164917%)" stop-opacity="1"/>
<stop offset="0.226562" stop-color="rgb(40.136719%, 41.815186%, 72.099304%)" stop-opacity="1"/>
<stop offset="0.234375" stop-color="rgb(39.996338%, 41.702271%, 71.958923%)" stop-opacity="1"/>
<stop offset="0.238281" stop-color="rgb(39.741516%, 41.40625%, 71.685791%)" stop-opacity="1"/>
<stop offset="0.242187" stop-color="rgb(39.627075%, 41.221619%, 71.551514%)" stop-opacity="1"/>
<stop offset="0.246094" stop-color="rgb(39.453125%, 40.99884%, 71.426392%)" stop-opacity="1"/>
<stop offset="0.25" stop-color="rgb(39.280701%, 40.777588%, 71.299744%)" stop-opacity="1"/>
<stop offset="0.253906" stop-color="rgb(39.067078%, 40.585327%, 71.168518%)" stop-opacity="1"/>
<stop offset="0.257813" stop-color="rgb(38.853455%, 40.393066%, 71.035767%)" stop-opacity="1"/>
<stop offset="0.265625" stop-color="rgb(38.731384%, 40.284729%, 70.89386%)" stop-opacity="1"/>
<stop offset="0.273438" stop-color="rgb(38.48877%, 40.066528%, 70.687866%)" stop-opacity="1"/>
<stop offset="0.277344" stop-color="rgb(38.259888%, 39.758301%, 70.436096%)" stop-opacity="1"/>
<stop offset="0.28125" stop-color="rgb(38.153076%, 39.559937%, 70.246887%)" stop-opacity="1"/>
<stop offset="0.285156" stop-color="rgb(37.957764%, 39.344788%, 70.094299%)" stop-opacity="1"/>
<stop offset="0.289062" stop-color="rgb(37.760925%, 39.131165%, 69.941711%)" stop-opacity="1"/>
<stop offset="0.292969" stop-color="rgb(37.574768%, 38.96637%, 69.80896%)" stop-opacity="1"/>
<stop offset="0.296875" stop-color="rgb(37.388611%, 38.801575%, 69.674683%)" stop-opacity="1"/>
<stop offset="0.300781" stop-color="rgb(37.272644%, 38.670349%, 69.535828%)" stop-opacity="1"/>
<stop offset="0.304688" stop-color="rgb(37.158203%, 38.539124%, 69.395447%)" stop-opacity="1"/>
<stop offset="0.308594" stop-color="rgb(37.046814%, 38.334656%, 69.273376%)" stop-opacity="1"/>
<stop offset="0.3125" stop-color="rgb(36.933899%, 38.128662%, 69.14978%)" stop-opacity="1"/>
<stop offset="0.316406" stop-color="rgb(36.677551%, 38.026428%, 69.004822%)" stop-opacity="1"/>
<stop offset="0.320312" stop-color="rgb(36.422729%, 37.922668%, 68.861389%)" stop-opacity="1"/>
<stop offset="0.324219" stop-color="rgb(36.299133%, 37.730408%, 68.736267%)" stop-opacity="1"/>
<stop offset="0.328125" stop-color="rgb(36.174011%, 37.536621%, 68.611145%)" stop-opacity="1"/>
<stop offset="0.332031" stop-color="rgb(36.05957%, 37.397766%, 68.530273%)" stop-opacity="1"/>
<stop offset="0.335938" stop-color="rgb(35.946655%, 37.258911%, 68.447876%)" stop-opacity="1"/>
<stop offset="0.339844" stop-color="rgb(35.835266%, 37.109375%, 68.32428%)" stop-opacity="1"/>
<stop offset="0.34375" stop-color="rgb(35.725403%, 36.962891%, 68.200684%)" stop-opacity="1"/>
<stop offset="0.347656" stop-color="rgb(35.588074%, 36.784363%, 68.034363%)" stop-opacity="1"/>
<stop offset="0.351562" stop-color="rgb(35.450745%, 36.607361%, 67.866516%)" stop-opacity="1"/>
<stop offset="0.355469" stop-color="rgb(35.202026%, 36.503601%, 67.803955%)" stop-opacity="1"/>
<stop offset="0.359375" stop-color="rgb(34.954834%, 36.398315%, 67.74292%)" stop-opacity="1"/>
<stop offset="0.363281" stop-color="rgb(34.855652%, 36.195374%, 67.622375%)" stop-opacity="1"/>
<stop offset="0.367187" stop-color="rgb(34.754944%, 35.992432%, 67.501831%)" stop-opacity="1"/>
<stop offset="0.375" stop-color="rgb(34.642029%, 35.879517%, 67.366028%)" stop-opacity="1"/>
<stop offset="0.378906" stop-color="rgb(34.327698%, 35.668945%, 67.141724%)" stop-opacity="1"/>
<stop offset="0.382813" stop-color="rgb(34.124756%, 35.572815%, 67.054749%)" stop-opacity="1"/>
<stop offset="0.386719" stop-color="rgb(33.940125%, 35.432434%, 66.934204%)" stop-opacity="1"/>
<stop offset="0.390625" stop-color="rgb(33.757019%, 35.292053%, 66.815186%)" stop-opacity="1"/>
<stop offset="0.394531" stop-color="rgb(33.625793%, 35.121155%, 66.650391%)" stop-opacity="1"/>
<stop offset="0.398438" stop-color="rgb(33.493042%, 34.950256%, 66.485596%)" stop-opacity="1"/>
<stop offset="0.402344" stop-color="rgb(33.247375%, 34.851074%, 66.423035%)" stop-opacity="1"/>
<stop offset="0.40625" stop-color="rgb(33.001709%, 34.754944%, 66.360474%)" stop-opacity="1"/>
<stop offset="0.410156" stop-color="rgb(32.907104%, 34.562683%, 66.165161%)" stop-opacity="1"/>
<stop offset="0.414062" stop-color="rgb(32.814026%, 34.370422%, 65.969849%)" stop-opacity="1"/>
<stop offset="0.417969" stop-color="rgb(32.589722%, 34.262085%, 65.888977%)" stop-opacity="1"/>
<stop offset="0.421875" stop-color="rgb(32.366943%, 34.153748%, 65.809631%)" stop-opacity="1"/>
<stop offset="0.425781" stop-color="rgb(32.217407%, 34.00116%, 65.666199%)" stop-opacity="1"/>
<stop offset="0.429688" stop-color="rgb(32.067871%, 33.847046%, 65.52124%)" stop-opacity="1"/>
<stop offset="0.433594" stop-color="rgb(31.945801%, 33.677673%, 65.344238%)" stop-opacity="1"/>
<stop offset="0.4375" stop-color="rgb(31.82373%, 33.508301%, 65.167236%)" stop-opacity="1"/>
<stop offset="0.441406" stop-color="rgb(31.648254%, 33.355713%, 65.020752%)" stop-opacity="1"/>
<stop offset="0.445312" stop-color="rgb(31.472778%, 33.201599%, 64.872742%)" stop-opacity="1"/>
<stop offset="0.449219" stop-color="rgb(31.25%, 33.018494%, 64.756775%)" stop-opacity="1"/>
<stop offset="0.453125" stop-color="rgb(31.027222%, 32.835388%, 64.639282%)" stop-opacity="1"/>
<stop offset="0.457031" stop-color="rgb(30.937195%, 32.650757%, 64.448547%)" stop-opacity="1"/>
<stop offset="0.460938" stop-color="rgb(30.847168%, 32.466125%, 64.257812%)" stop-opacity="1"/>
<stop offset="0.46875" stop-color="rgb(30.738831%, 32.359314%, 64.178467%)" stop-opacity="1"/>
<stop offset="0.472656" stop-color="rgb(30.534363%, 32.106018%, 63.95874%)" stop-opacity="1"/>
<stop offset="0.476562" stop-color="rgb(30.436707%, 31.958008%, 63.819885%)" stop-opacity="1"/>
<stop offset="0.480469" stop-color="rgb(30.284119%, 31.820679%, 63.656616%)" stop-opacity="1"/>
<stop offset="0.484375" stop-color="rgb(30.131531%, 31.681824%, 63.493347%)" stop-opacity="1"/>
<stop offset="0.488281" stop-color="rgb(29.925537%, 31.582642%, 63.35144%)" stop-opacity="1"/>
<stop offset="0.492187" stop-color="rgb(29.719543%, 31.481934%, 63.21106%)" stop-opacity="1"/>
<stop offset="0.496094" stop-color="rgb(29.632568%, 31.304932%, 63.026428%)" stop-opacity="1"/>
<stop offset="0.5" stop-color="rgb(29.545593%, 31.12793%, 62.841797%)" stop-opacity="1"/>
<stop offset="0.507812" stop-color="rgb(29.434204%, 31.040955%, 62.786865%)" stop-opacity="1"/>
<stop offset="0.511719" stop-color="rgb(29.127502%, 30.801392%, 62.571716%)" stop-opacity="1"/>
<stop offset="0.515625" stop-color="rgb(28.930664%, 30.648804%, 62.413025%)" stop-opacity="1"/>
<stop offset="0.519531" stop-color="rgb(28.779602%, 30.532837%, 62.309265%)" stop-opacity="1"/>
<stop offset="0.523438" stop-color="rgb(28.62854%, 30.41687%, 62.205505%)" stop-opacity="1"/>
<stop offset="0.527344" stop-color="rgb(28.529358%, 30.2948%, 62.097168%)" stop-opacity="1"/>
<stop offset="0.53125" stop-color="rgb(28.430176%, 30.174255%, 61.988831%)" stop-opacity="1"/>
<stop offset="0.535156" stop-color="rgb(28.334045%, 30.00946%, 61.813354%)" stop-opacity="1"/>
<stop offset="0.539062" stop-color="rgb(28.236389%, 29.846191%, 61.637878%)" stop-opacity="1"/>
<stop offset="0.546875" stop-color="rgb(28.085327%, 29.718018%, 61.488342%)" stop-opacity="1"/>
<stop offset="0.554688" stop-color="rgb(27.832031%, 29.510498%, 61.213684%)" stop-opacity="1"/>
<stop offset="0.558594" stop-color="rgb(27.532959%, 29.286194%, 60.978699%)" stop-opacity="1"/>
<stop offset="0.5625" stop-color="rgb(27.339172%, 29.139709%, 60.86731%)" stop-opacity="1"/>
<stop offset="0.566406" stop-color="rgb(27.204895%, 28.974915%, 60.716248%)" stop-opacity="1"/>
<stop offset="0.570313" stop-color="rgb(27.072144%, 28.808594%, 60.565186%)" stop-opacity="1"/>
<stop offset="0.574219" stop-color="rgb(26.982117%, 28.677368%, 60.437012%)" stop-opacity="1"/>
<stop offset="0.578125" stop-color="rgb(26.890564%, 28.544617%, 60.308838%)" stop-opacity="1"/>
<stop offset="0.582031" stop-color="rgb(26.759338%, 28.469849%, 60.243225%)" stop-opacity="1"/>
<stop offset="0.585938" stop-color="rgb(26.628113%, 28.393555%, 60.176086%)" stop-opacity="1"/>
<stop offset="0.589844" stop-color="rgb(26.396179%, 28.330994%, 60.057068%)" stop-opacity="1"/>
<stop offset="0.59375" stop-color="rgb(26.165771%, 28.268433%, 59.938049%)" stop-opacity="1"/>
<stop offset="0.597656" stop-color="rgb(26.083374%, 28.100586%, 59.828186%)" stop-opacity="1"/>
<stop offset="0.601562" stop-color="rgb(26.000977%, 27.932739%, 59.719849%)" stop-opacity="1"/>
<stop offset="0.605469" stop-color="rgb(25.872803%, 27.807617%, 59.529114%)" stop-opacity="1"/>
<stop offset="0.609375" stop-color="rgb(25.744629%, 27.679443%, 59.336853%)" stop-opacity="1"/>
<stop offset="0.613281" stop-color="rgb(25.639343%, 27.536011%, 59.187317%)" stop-opacity="1"/>
<stop offset="0.617188" stop-color="rgb(25.534058%, 27.389526%, 59.034729%)" stop-opacity="1"/>
<stop offset="0.621094" stop-color="rgb(25.404358%, 27.232361%, 58.901978%)" stop-opacity="1"/>
<stop offset="0.625" stop-color="rgb(25.276184%, 27.075195%, 58.769226%)" stop-opacity="1"/>
<stop offset="0.628906" stop-color="rgb(25.085449%, 26.93634%, 58.592224%)" stop-opacity="1"/>
<stop offset="0.632812" stop-color="rgb(24.894714%, 26.797485%, 58.413696%)" stop-opacity="1"/>
<stop offset="0.640625" stop-color="rgb(24.757385%, 26.686096%, 58.203125%)" stop-opacity="1"/>
<stop offset="0.648438" stop-color="rgb(24.520874%, 26.504517%, 57.875061%)" stop-opacity="1"/>
<stop offset="0.652344" stop-color="rgb(24.391174%, 26.286316%, 57.646179%)" stop-opacity="1"/>
<stop offset="0.65625" stop-color="rgb(24.357605%, 26.138306%, 57.536316%)" stop-opacity="1"/>
<stop offset="0.660156" stop-color="rgb(24.128723%, 26.101685%, 57.417297%)" stop-opacity="1"/>
<stop offset="0.664062" stop-color="rgb(23.899841%, 26.062012%, 57.298279%)" stop-opacity="1"/>
<stop offset="0.671875" stop-color="rgb(23.776245%, 25.926208%, 57.131958%)" stop-opacity="1"/>
<stop offset="0.675781" stop-color="rgb(23.643494%, 25.694275%, 56.869507%)" stop-opacity="1"/>
<stop offset="0.679687" stop-color="rgb(23.631287%, 25.598145%, 56.774902%)" stop-opacity="1"/>
<stop offset="0.683594" stop-color="rgb(23.500061%, 25.518799%, 56.668091%)" stop-opacity="1"/>
<stop offset="0.6875" stop-color="rgb(23.36731%, 25.439453%, 56.561279%)" stop-opacity="1"/>
<stop offset="0.695312" stop-color="rgb(23.254395%, 25.376892%, 56.515503%)" stop-opacity="1"/>
<stop offset="0.699219" stop-color="rgb(23.010254%, 25.189209%, 56.309509%)" stop-opacity="1"/>
<stop offset="0.703125" stop-color="rgb(22.879028%, 25.064087%, 56.147766%)" stop-opacity="1"/>
<stop offset="0.707031" stop-color="rgb(22.738647%, 24.960327%, 55.992126%)" stop-opacity="1"/>
<stop offset="0.710938" stop-color="rgb(22.598267%, 24.855042%, 55.833435%)" stop-opacity="1"/>
<stop offset="0.71875" stop-color="rgb(22.502136%, 24.790955%, 55.717468%)" stop-opacity="1"/>
<stop offset="0.722656" stop-color="rgb(22.438049%, 24.560547%, 55.44281%)" stop-opacity="1"/>
<stop offset="0.726562" stop-color="rgb(22.470093%, 24.395752%, 55.284119%)" stop-opacity="1"/>
<stop offset="0.730469" stop-color="rgb(22.268677%, 24.308777%, 55.105591%)" stop-opacity="1"/>
<stop offset="0.734375" stop-color="rgb(22.067261%, 24.220276%, 54.925537%)" stop-opacity="1"/>
<stop offset="0.742188" stop-color="rgb(21.980286%, 24.163818%, 54.812622%)" stop-opacity="1"/>
<stop offset="0.746094" stop-color="rgb(21.77887%, 24.029541%, 54.634094%)" stop-opacity="1"/>
<stop offset="0.75" stop-color="rgb(21.661377%, 23.953247%, 54.568481%)" stop-opacity="1"/>
<stop offset="0.753906" stop-color="rgb(21.505737%, 23.831177%, 54.38385%)" stop-opacity="1"/>
<stop offset="0.757812" stop-color="rgb(21.348572%, 23.709106%, 54.197693%)" stop-opacity="1"/>
<stop offset="0.765625" stop-color="rgb(21.237183%, 23.63739%, 54.089355%)" stop-opacity="1"/>
<stop offset="0.769531" stop-color="rgb(21.182251%, 23.402405%, 53.825378%)" stop-opacity="1"/>
<stop offset="0.773438" stop-color="rgb(21.237183%, 23.239136%, 53.669739%)" stop-opacity="1"/>
<stop offset="0.777344" stop-color="rgb(21.018982%, 23.15979%, 53.504944%)" stop-opacity="1"/>
<stop offset="0.78125" stop-color="rgb(20.802307%, 23.080444%, 53.340149%)" stop-opacity="1"/>
<stop offset="0.785156" stop-color="rgb(20.727539%, 23.033142%, 53.22876%)" stop-opacity="1"/>
<stop offset="0.789062" stop-color="rgb(20.654297%, 22.987366%, 53.117371%)" stop-opacity="1"/>
<stop offset="0.792969" stop-color="rgb(20.570374%, 22.845459%, 53.016663%)" stop-opacity="1"/>
<stop offset="0.796875" stop-color="rgb(20.48645%, 22.705078%, 52.91748%)" stop-opacity="1"/>
<stop offset="0.800781" stop-color="rgb(20.329285%, 22.622681%, 52.705383%)" stop-opacity="1"/>
<stop offset="0.804688" stop-color="rgb(20.170593%, 22.538757%, 52.49176%)" stop-opacity="1"/>
<stop offset="0.808594" stop-color="rgb(20.046997%, 22.497559%, 52.455139%)" stop-opacity="1"/>
<stop offset="0.8125" stop-color="rgb(19.923401%, 22.45636%, 52.418518%)" stop-opacity="1"/>
<stop offset="0.820313" stop-color="rgb(19.839478%, 22.396851%, 52.310181%)" stop-opacity="1"/>
<stop offset="0.824219" stop-color="rgb(19.648743%, 22.215271%, 52.030945%)" stop-opacity="1"/>
<stop offset="0.828125" stop-color="rgb(19.543457%, 22.093201%, 51.855469%)" stop-opacity="1"/>
<stop offset="0.832031" stop-color="rgb(19.482422%, 21.994019%, 51.696777%)" stop-opacity="1"/>
<stop offset="0.835938" stop-color="rgb(19.418335%, 21.894836%, 51.538086%)" stop-opacity="1"/>
<stop offset="0.84375" stop-color="rgb(19.297791%, 21.80481%, 51.411438%)" stop-opacity="1"/>
<stop offset="0.847656" stop-color="rgb(19.07196%, 21.64917%, 51.158142%)" stop-opacity="1"/>
<stop offset="0.851562" stop-color="rgb(18.966675%, 21.585083%, 51.03302%)" stop-opacity="1"/>
<stop offset="0.855469" stop-color="rgb(18.800354%, 21.548462%, 50.852966%)" stop-opacity="1"/>
<stop offset="0.859375" stop-color="rgb(18.632507%, 21.508789%, 50.671387%)" stop-opacity="1"/>
<stop offset="0.867188" stop-color="rgb(18.521118%, 21.466064%, 50.631714%)" stop-opacity="1"/>
<stop offset="0.871094" stop-color="rgb(18.315125%, 21.308899%, 50.367737%)" stop-opacity="1"/>
<stop offset="0.875" stop-color="rgb(18.217468%, 21.195984%, 50.141907%)" stop-opacity="1"/>
<stop offset="0.878906" stop-color="rgb(18.144226%, 21.110535%, 50.030518%)" stop-opacity="1"/>
<stop offset="0.882812" stop-color="rgb(18.069458%, 21.025085%, 49.920654%)" stop-opacity="1"/>
<stop offset="0.886719" stop-color="rgb(17.982483%, 20.925903%, 49.751282%)" stop-opacity="1"/>
<stop offset="0.890625" stop-color="rgb(17.897034%, 20.826721%, 49.581909%)" stop-opacity="1"/>
<stop offset="0.898438" stop-color="rgb(17.756653%, 20.759583%, 49.475098%)" stop-opacity="1"/>
<stop offset="0.902344" stop-color="rgb(17.494202%, 20.648193%, 49.237061%)" stop-opacity="1"/>
<stop offset="0.90625" stop-color="rgb(17.372131%, 20.603943%, 49.104309%)" stop-opacity="1"/>
<stop offset="0.910156" stop-color="rgb(17.25769%, 20.570374%, 48.995972%)" stop-opacity="1"/>
<stop offset="0.914062" stop-color="rgb(17.14325%, 20.536804%, 48.886108%)" stop-opacity="1"/>
<stop offset="0.921875" stop-color="rgb(17.033386%, 20.437622%, 48.745728%)" stop-opacity="1"/>
<stop offset="0.925781" stop-color="rgb(16.867065%, 20.211792%, 48.41156%)" stop-opacity="1"/>
<stop offset="0.929687" stop-color="rgb(16.809082%, 20.08667%, 48.217773%)" stop-opacity="1"/>
<stop offset="0.9375" stop-color="rgb(16.734314%, 20.031738%, 48.127747%)" stop-opacity="1"/>
<stop offset="1" stop-color="rgb(16.664124%, 19.981384%, 47.979736%)" stop-opacity="1"/>
</linearGradient>
</defs>
<g clip-path="url(#clip-0)">
<g clip-path="url(#clip-1)">
<g clip-path="url(#clip-2)">
<path fill-rule="nonzero" fill="url(#linear-pattern-0)" d="M 2000 6000 L -2000 2000 L 2000 -2000 L 6000 2000 Z M 2000 6000 "/>
</g>
</g>
</g>
<path fill-rule="nonzero" fill="rgb(11.035156%, 10.409546%, 10.093689%)" fill-opacity="1" d="M 2765.398438 3072.078125 L 2560 3072.078125 C 2539.289062 3072.058594 2522.5 3055.269531 2522.480469 3034.558594 L 2522.480469 2810.558594 C 2522.480469 2789.839844 2539.28125 2773.039062 2560 2773.039062 C 2580.71875 2773.039062 2597.519531 2789.839844 2597.519531 2810.558594 L 2597.519531 2997.078125 L 2765.238281 2997.078125 C 2785.960938 2997.078125 2802.761719 3013.878906 2802.761719 3034.601562 C 2802.761719 3055.320312 2785.960938 3072.121094 2765.238281 3072.121094 Z M 2960.878906 3036.480469 C 2960.878906 3015.761719 2977.679688 2998.960938 2998.398438 2998.960938 L 3135.71875 2998.960938 C 3128.28125 2875.640625 3081.238281 2758.011719 3001.601562 2663.558594 C 2999.238281 2660.761719 2996.839844 2658 2994.441406 2655.238281 L 2897.558594 2752.160156 C 2882.898438 2766.820312 2859.140625 2766.820312 2844.480469 2752.160156 C 2829.820312 2737.5 2829.820312 2713.738281 2844.480469 2699.078125 L 2941.558594 2602 L 2939.039062 2599.800781 C 2843.859375 2516.578125 2723.859375 2467.109375 2597.679688 2459.078125 L 2597.679688 2596.28125 C 2597.679688 2617 2580.878906 2633.800781 2560.160156 2633.800781 C 2539.441406 2633.800781 2522.640625 2617 2522.640625 2596.28125 L 2522.640625 2459.078125 C 2395.28125 2467.171875 2274.238281 2517.460938 2178.640625 2602 L 2276 2699.078125 C 2290.558594 2713.828125 2290.410156 2737.578125 2275.660156 2752.140625 C 2261.050781 2766.558594 2237.578125 2766.570312 2222.960938 2752.160156 L 2126.078125 2655.28125 C 2087.570312 2699.148438 2055.96875 2748.621094 2032.359375 2802 C 2021.988281 2825.46875 2013.21875 2849.621094 2006.121094 2874.28125 C 1994.378906 2914.929688 1987.160156 2956.761719 1984.601562 2999 L 2121.960938 2999 C 2142.679688 2999 2159.480469 3015.800781 2159.480469 3036.519531 C 2159.480469 3057.238281 2142.679688 3074.039062 2121.960938 3074.039062 L 1984.878906 3074.039062 C 1993.351562 3200.671875 2043.570312 3320.921875 2127.679688 3415.960938 L 2224.71875 3318.921875 C 2239.78125 3304.691406 2263.53125 3305.359375 2277.761719 3320.421875 C 2291.429688 3334.878906 2291.429688 3357.5 2277.761719 3371.960938 L 2180.839844 3468.921875 C 2276.089844 3552.371094 2396.261719 3601.96875 2522.640625 3610 L 2522.640625 3472.800781 C 2522.640625 3452.078125 2539.441406 3435.28125 2560.160156 3435.28125 C 2580.878906 3435.28125 2597.679688 3452.078125 2597.679688 3472.800781 L 2597.679688 3610 C 2724.070312 3601.96875 2844.238281 3552.351562 2939.480469 3468.878906 L 2842.601562 3371.921875 C 2828.371094 3356.859375 2829.039062 3333.109375 2844.101562 3318.878906 C 2858.558594 3305.210938 2881.179688 3305.210938 2895.640625 3318.878906 L 2992.679688 3415.921875 C 3076.769531 3320.871094 3126.988281 3200.628906 3135.480469 3074 L 2998.398438 3074 C 2977.679688 3074 2960.878906 3057.199219 2960.878906 3036.480469 "/>
<path fill-rule="nonzero" fill="rgb(11.035156%, 10.409546%, 10.093689%)" fill-opacity="1" d="M 1564 753.238281 L 1564 948.199219 C 1565.320312 1027.300781 1502.269531 1092.488281 1423.179688 1093.820312 C 1344.078125 1095.140625 1278.878906 1032.089844 1277.558594 952.988281 C 1277.53125 951.390625 1277.53125 949.800781 1277.558594 948.199219 L 1277.558594 753.238281 C 1278.878906 674.140625 1344.078125 611.089844 1423.179688 612.421875 C 1500.410156 613.710938 1562.710938 676.011719 1564 753.238281 "/>
<path fill-rule="nonzero" fill="rgb(11.035156%, 10.409546%, 10.093689%)" fill-opacity="1" d="M 2829.921875 888.238281 L 2764.679688 888.238281 L 2764.679688 948.238281 C 2766.308594 1068.78125 2669.921875 1167.820312 2549.371094 1169.449219 C 2428.828125 1171.078125 2329.789062 1074.691406 2328.160156 954.148438 C 2328.128906 952.179688 2328.128906 950.210938 2328.160156 948.238281 L 2328.160156 888.238281 L 1638.921875 888.238281 L 1638.921875 948.238281 C 1640.550781 1068.78125 1544.160156 1167.820312 1423.609375 1169.449219 C 1303.070312 1171.078125 1204.03125 1074.691406 1202.398438 954.148438 C 1202.371094 952.179688 1202.371094 950.210938 1202.398438 948.238281 L 1202.398438 888.238281 L 1137.160156 888.238281 C 1076.910156 888.28125 1028.070312 937.109375 1028 997.359375 L 1028 1396.238281 L 2939.039062 1396.238281 L 2939.039062 997.359375 C 2938.96875 937.121094 2890.160156 888.308594 2829.921875 888.238281 "/>
<path fill-rule="nonzero" fill="rgb(11.035156%, 10.409546%, 10.093689%)" fill-opacity="1" d="M 2689.640625 753.238281 L 2689.640625 948.199219 C 2689.679688 1027.308594 2625.578125 1091.46875 2546.46875 1091.511719 C 2467.359375 1091.539062 2403.199219 1027.441406 2403.160156 948.328125 C 2403.160156 948.289062 2403.160156 948.238281 2403.160156 948.199219 L 2403.160156 753.238281 C 2403.199219 674.128906 2467.359375 610.03125 2546.46875 610.070312 C 2625.519531 610.101562 2689.601562 674.179688 2689.640625 753.238281 "/>
<path fill-rule="nonzero" fill="rgb(11.035156%, 10.409546%, 10.093689%)" fill-opacity="1" d="M 1324 2010.441406 L 1324 1701.160156 L 1633.28125 1701.160156 L 1633.28125 2010.441406 Z M 1633.160156 2569.359375 L 1324 2569.359375 L 1324 2260.078125 L 1633.28125 2260.078125 Z M 2333.921875 1701.160156 L 2643.199219 1701.160156 L 2643.199219 2010.441406 L 2333.921875 2010.441406 Z M 2333.921875 2424.558594 L 2333.921875 2260.078125 L 2643.199219 2260.078125 L 2643.199219 2389.238281 C 2748.410156 2402.761719 2848.679688 2441.921875 2935.199219 2503.28125 L 2935.199219 1471.28125 L 1024.28125 1471.28125 L 1024.28125 2690 C 1024.351562 2750.238281 1073.160156 2799.050781 1133.398438 2799.121094 L 1953.640625 2799.121094 C 2021.378906 2625.878906 2159.671875 2489.671875 2333.921875 2424.558594 "/>
<path fill-rule="nonzero" fill="rgb(95.063782%, 94.978333%, 94.863892%)" fill-opacity="1" d="M 2685.398438 2992.078125 L 2480 2992.078125 C 2459.289062 2992.058594 2442.5 2975.269531 2442.480469 2954.558594 L 2442.480469 2730.558594 C 2442.480469 2709.839844 2459.28125 2693.039062 2480 2693.039062 C 2500.71875 2693.039062 2517.519531 2709.839844 2517.519531 2730.558594 L 2517.519531 2917.078125 L 2685.238281 2917.078125 C 2705.960938 2917.078125 2722.761719 2933.878906 2722.761719 2954.601562 C 2722.761719 2975.320312 2705.960938 2992.121094 2685.238281 2992.121094 Z M 2880.878906 2956.480469 C 2880.878906 2935.761719 2897.679688 2918.960938 2918.398438 2918.960938 L 3055.71875 2918.960938 C 3048.28125 2795.640625 3001.238281 2678.011719 2921.601562 2583.558594 C 2919.238281 2580.761719 2916.839844 2578 2914.441406 2575.238281 L 2817.558594 2672.160156 C 2802.898438 2686.820312 2779.140625 2686.820312 2764.480469 2672.160156 C 2749.820312 2657.5 2749.820312 2633.738281 2764.480469 2619.078125 L 2861.558594 2522 L 2859.039062 2519.800781 C 2763.859375 2436.578125 2643.859375 2387.109375 2517.679688 2379.078125 L 2517.679688 2516.28125 C 2517.679688 2537 2500.878906 2553.800781 2480.160156 2553.800781 C 2459.441406 2553.800781 2442.640625 2537 2442.640625 2516.28125 L 2442.640625 2379.078125 C 2315.28125 2387.171875 2194.238281 2437.460938 2098.640625 2522 L 2196 2619.078125 C 2210.558594 2633.828125 2210.410156 2657.578125 2195.660156 2672.140625 C 2181.050781 2686.558594 2157.578125 2686.570312 2142.960938 2672.160156 L 2046.078125 2575.28125 C 2007.570312 2619.148438 1975.96875 2668.621094 1952.359375 2722 C 1941.988281 2745.46875 1933.21875 2769.621094 1926.121094 2794.28125 C 1914.378906 2834.929688 1907.160156 2876.761719 1904.601562 2919 L 2041.960938 2919 C 2062.679688 2919 2079.480469 2935.800781 2079.480469 2956.519531 C 2079.480469 2977.238281 2062.679688 2994.039062 2041.960938 2994.039062 L 1904.878906 2994.039062 C 1913.351562 3120.671875 1963.570312 3240.921875 2047.679688 3335.960938 L 2144.71875 3238.921875 C 2159.78125 3224.691406 2183.53125 3225.359375 2197.761719 3240.421875 C 2211.429688 3254.878906 2211.429688 3277.5 2197.761719 3291.960938 L 2100.839844 3388.921875 C 2196.089844 3472.371094 2316.261719 3521.96875 2442.640625 3530 L 2442.640625 3392.800781 C 2442.640625 3372.078125 2459.441406 3355.28125 2480.160156 3355.28125 C 2500.878906 3355.28125 2517.679688 3372.078125 2517.679688 3392.800781 L 2517.679688 3530 C 2644.070312 3521.96875 2764.238281 3472.351562 2859.480469 3388.878906 L 2762.601562 3291.921875 C 2748.371094 3276.859375 2749.039062 3253.109375 2764.101562 3238.878906 C 2778.558594 3225.210938 2801.179688 3225.210938 2815.640625 3238.878906 L 2912.679688 3335.921875 C 2996.769531 3240.871094 3046.988281 3120.628906 3055.480469 2994 L 2918.398438 2994 C 2897.679688 2994 2880.878906 2977.199219 2880.878906 2956.480469 "/>
<path fill-rule="nonzero" fill="rgb(95.063782%, 94.978333%, 94.863892%)" fill-opacity="1" d="M 1484 673.238281 L 1484 868.199219 C 1485.320312 947.300781 1422.269531 1012.488281 1343.179688 1013.820312 C 1264.078125 1015.140625 1198.878906 952.089844 1197.558594 872.988281 C 1197.53125 871.390625 1197.53125 869.800781 1197.558594 868.199219 L 1197.558594 673.238281 C 1198.878906 594.140625 1264.078125 531.089844 1343.179688 532.421875 C 1420.410156 533.710938 1482.710938 596.011719 1484 673.238281 "/>
<path fill-rule="nonzero" fill="rgb(95.063782%, 94.978333%, 94.863892%)" fill-opacity="1" d="M 2749.921875 808.238281 L 2684.679688 808.238281 L 2684.679688 868.238281 C 2686.308594 988.78125 2589.921875 1087.820312 2469.371094 1089.449219 C 2348.828125 1091.078125 2249.789062 994.691406 2248.160156 874.148438 C 2248.128906 872.179688 2248.128906 870.210938 2248.160156 868.238281 L 2248.160156 808.238281 L 1558.921875 808.238281 L 1558.921875 868.238281 C 1560.550781 988.78125 1464.160156 1087.820312 1343.609375 1089.449219 C 1223.070312 1091.078125 1124.03125 994.691406 1122.398438 874.148438 C 1122.371094 872.179688 1122.371094 870.210938 1122.398438 868.238281 L 1122.398438 808.238281 L 1057.160156 808.238281 C 996.90625 808.28125 948.066406 857.109375 948 917.359375 L 948 1316.238281 L 2859.039062 1316.238281 L 2859.039062 917.359375 C 2858.96875 857.121094 2810.160156 808.308594 2749.921875 808.238281 "/>
<path fill-rule="nonzero" fill="rgb(95.063782%, 94.978333%, 94.863892%)" fill-opacity="1" d="M 2609.640625 673.238281 L 2609.640625 868.199219 C 2609.679688 947.308594 2545.578125 1011.46875 2466.46875 1011.511719 C 2387.359375 1011.539062 2323.199219 947.441406 2323.160156 868.328125 C 2323.160156 868.289062 2323.160156 868.238281 2323.160156 868.199219 L 2323.160156 673.238281 C 2323.199219 594.128906 2387.359375 530.03125 2466.46875 530.070312 C 2545.519531 530.101562 2609.601562 594.179688 2609.640625 673.238281 "/>
<path fill-rule="nonzero" fill="rgb(95.063782%, 94.978333%, 94.863892%)" fill-opacity="1" d="M 1244 1930.441406 L 1244 1621.160156 L 1553.28125 1621.160156 L 1553.28125 1930.441406 Z M 1553.160156 2489.359375 L 1244 2489.359375 L 1244 2180.078125 L 1553.28125 2180.078125 Z M 2253.921875 1621.160156 L 2563.199219 1621.160156 L 2563.199219 1930.441406 L 2253.921875 1930.441406 Z M 2253.921875 2344.558594 L 2253.921875 2180.078125 L 2563.199219 2180.078125 L 2563.199219 2309.238281 C 2668.410156 2322.761719 2768.679688 2361.921875 2855.199219 2423.28125 L 2855.199219 1391.28125 L 944.28125 1391.28125 L 944.28125 2610 C 944.347656 2670.238281 993.160156 2719.050781 1053.398438 2719.121094 L 1873.640625 2719.121094 C 1941.378906 2545.878906 2079.671875 2409.671875 2253.921875 2344.558594 "/>
</svg>
